<svg height="245pt" viewBox="38.1 21.5 353.1 181.5" width="576" xmlns="http://www.w3.org/2000/svg"><path d="m47.3 23.2c-3.3.9-6.3 4.9-6.3 8.4 0 1 1.4 6.2 3.2 11.5l3.2 9.7-3.7 4.1c-2 2.2-4.1 5.8-4.7 8-.9 3.5-.7 4.8 1.5 10.3 1.4 3.5 3.7 8 5.1 10.2 2.2 3.2 2.4 4.2 1.5 6.3-2.2 4.8-1.3 7.7 5 16.1l6.1 8.1-2.6 3.4c-5 6.5-2.1 15.2 7.3 21.7 3.9 2.7 5.1 4.1 5 6-.2 5.9.3 7.3 4.5 11.8 2.4 2.6 6.7 6 9.4 7.7 4.6 2.7 5 3.3 4.5 6.1-.7 4.1 3.1 8.5 9.7 11.3 4 1.7 5 2.6 5 4.5 0 6 7.4 10.8 19.5 12.6 13.2 2 27.3-.9 32.6-6.6l2.4-2.7-5 .9c-9.1 1.6-31.4 1.1-37.7-.9-3.2-1-5.8-2.2-5.8-2.7 0-.6 4-1 9.3-1 11.4 0 19.7-2.1 19.7-5 0-2.3-.3-2.4-6.8-.8-4.1.9-6.6.8-13.9-.6-13.8-2.7-22.3-5.4-22.3-7.3 0-1.2.7-1.5 3.8-1 2 .3 7.3 1.1 11.7 1.7 12.8 1.9 25-.1 24.3-3.9-.3-1.3-2.4-1.7-10.3-2.3-10.3-.7-19.7-2.3-29.8-5.3-7.6-2.2-18.1-9.2-18.5-12.4-.3-2 0-2.3 2-1.8 1.2.3 8.6 2.2 16.2 4.2 12.3 3.2 14.1 3.4 15.4 2.1 2.2-2.1.8-4.6-2.7-4.6-7.4 0-24-6.8-35.8-14.6-9.7-6.4-11.2-8.4-8.8-12 .8-1.3 1.8-2.4 2.1-2.4.4 0 2.8 1.6 5.5 3.5 8.8 6.6 19.4 8.5 19.4 3.7 0-1.9-1.1-2.7-5.5-4.5-7.4-3-16.9-9.7-21.5-14.9-4.1-4.7-8.2-12.4-7.2-13.4.3-.3 5.6 2.4 11.8 6 11.2 6.6 13.9 7.4 13.9 3.8 0-2.4-2-4.1-8.9-7.8-9.6-5.1-17.6-15.2-23.4-29.3-1.7-4.1-1.7-4.5-.1-6.2 3.2-3.5 5.9-2.4 10.8 4.5 4.1 5.7 17.4 19.1 18.2 18.3.2-.2-3.8-6.6-8.9-14.4-12.6-18.9-18.8-31.1-19-37.1-.2-4.5-.1-4.7 2.8-5 2.7-.2 3.6.5 8.5 7 7.1 9.4 24.4 26.8 34.4 34.7 19.1 15 38 25.5 57.4 31.6 17.5 5.5 19.8 6.4 23.4 8.8 4.6 3.1 10.4 11.1 13.1 18 1.5 4.1 3.1 6.4 5.3 7.8 3.6 2.2 6.4 2.5 6.4.6 0-1.1-3-8.8-8.3-21.1-2.9-6.6-8.6-12.2-13.9-13.6-29.2-7.9-53.7-20.1-79.3-39.4-8.9-6.7-30.1-27-35.5-34-3.1-4-5.2-5.5-10-6.8-.8-.3-3-.1-4.7.4zm327 .1c-1.9.7-6.6 5.1-11.7 10.8-18.4 20.9-43.3 40.2-67.5 52.4-10.9 5.4-27.7 12.1-36.3 14.3-4.2 1.2-9 2.8-10.6 3.6-4.1 2.1-8.9 8.1-10.9 13.6-.9 2.5-2.7 7.2-4 10.5-3.6 8.7-3.9 10.5-1.8 10.5 3.5 0 7.4-4.2 11.1-11.7 2-4.2 5.6-9.8 8.1-12.4 4.8-5.1 7.6-6.5 26.4-12.3 33.2-10.3 66.1-33.8 91.6-65.4 4.2-5 7.9-9.2 8.5-9.2 2.5 0 4.8 2.3 4.8 4.8-.1 5.9-9.2 23.2-22.7 42.9-3.5 5.2-6.3 9.7-6.1 9.9 1 .9 14.7-13 18.3-18.5 3.2-4.9 4.5-6.1 6.7-6.1 2.4 0 5.8 2.2 5.8 3.8 0 .3-2 4.7-4.5 9.8-5.4 11.1-12.2 18.9-20.4 23.3-6 3.2-10.5 7.6-9.5 9.2 1.2 1.9 4.9.6 15-5.2 5.7-3.4 10.7-5.9 11-5.6 1 1-.7 4.6-5.1 10.6-4.8 6.5-12.8 12.5-23.1 17.3-4.4 2-6.4 3.6-6.4 4.8 0 1.8 1.9 3 4.5 3 3.1 0 12.9-4.4 16.1-7.2 3.8-3.4 6.3-3.4 7.6.1.8 2.1.2 3-4.2 7.2-7 6.6-24.8 15.3-36 17.7-8.6 1.9-10.7 3.5-7.8 6 1 .8 4.7.2 14.3-2.2 7.2-1.9 14.3-3.9 15.9-4.5 3.4-1.4 5.1.1 3.6 3-1.1 2-8.8 7.1-15 9.8-5.7 2.5-22.8 5.9-34.4 6.9-9.6.8-11.4 2-7.1 4.8 2 1.3 4.7 1.7 11.8 1.6 8.5 0 20.5-1.4 24.1-2.8 1.1-.4 1.6 0 1.6 1.5 0 2.4-4.6 4-20.9 7.1-9 1.8-11.2 1.9-15.8.9-6.5-1.5-9.1-.1-4.9 2.6 3.9 2.6 9.2 3.5 18.3 3.4 4.6-.1 8.4.2 8.5.7.2.5-2.2 1.8-5.2 2.9-4.5 1.6-8.2 1.9-20 2-8.8 0-15.8-.5-17.7-1.2-7.5-2.7-2.3 3.6 5.4 6.6 8.1 3.2 26.6 3 35.3-.5 4.8-1.9 9-6.6 9-9.9 0-2 1.1-3 5.3-5 7-3.3 9.1-5.6 9.2-10.6.1-3.7.5-4.2 4.5-6.5 9-5.1 13.9-11.4 14.1-18.1 0-3.4.7-4.3 5.2-7.9 9.9-7.7 12.3-15.1 7.1-21.3-2.9-3.4-3.1-2.9 4.3-12.7 5.4-7.2 6.3-10.2 4.2-14.7-.9-1.9-.4-3.5 3.1-9.9 2.2-4.2 4.5-9 5-10.7 1.2-4.4-.5-9.5-4.7-14.2l-3.7-4 3.4-10.3c3.6-11.3 3.6-14.1-.5-18.2-2.6-2.6-5.3-2.9-10.2-1.1z"/></svg>